#N canvas 566 243 1105 552 10;
#X obj 12 14 cnv 15 1084 25 empty empty LaunchControlMidiSetup 20 12 0 14 #e0e0e0 #404040 0;
#X floatatom 826 110 5 0 0 0 - - - 0;
#X floatatom 865 110 5 0 0 0 - - - 0;
#X floatatom 904 110 5 0 0 0 - - - 0;
#X floatatom 943 110 5 0 0 0 - - - 0;
#X floatatom 12 87 3 0 0 0 - - - 0;
#X floatatom 40 87 3 0 0 0 - - - 0;
#X floatatom 69 87 3 0 0 0 - - - 0;
#X floatatom 97 88 3 0 0 0 - - - 0;
#X floatatom 126 88 3 0 0 0 - - - 0;
#X floatatom 154 88 3 0 0 0 - - - 0;
#X floatatom 183 88 3 0 0 0 - - - 0;
#X floatatom 211 88 3 0 0 0 - - - 0;
#X floatatom 239 88 3 0 0 0 - - - 0;
#X floatatom 267 88 3 0 0 0 - - - 0;
#X floatatom 296 88 3 0 0 0 - - - 0;
#X floatatom 324 89 3 0 0 0 - - - 0;
#X floatatom 353 89 3 0 0 0 - - - 0;
#X floatatom 381 89 3 0 0 0 - - - 0;
#X floatatom 410 89 3 0 0 0 - - - 0;
#X floatatom 438 89 3 0 0 0 - - - 0;
#X floatatom 466 89 3 0 0 0 - - - 0;
#X floatatom 494 89 3 0 0 0 - - - 0;
#X floatatom 523 89 3 0 0 0 - - - 0;
#X floatatom 551 90 3 0 0 0 - - - 0;
#X floatatom 580 90 3 0 0 0 - - - 0;
#X floatatom 608 90 3 0 0 0 - - - 0;
#X floatatom 637 90 3 0 0 0 - - - 0;
#X floatatom 665 90 3 0 0 0 - - - 0;
#X floatatom 12 247 3 0 0 0 - - - 0;
#X floatatom 40 247 3 0 0 0 - - - 0;
#X floatatom 69 247 3 0 0 0 - - - 0;
#X floatatom 97 248 3 0 0 0 - - - 0;
#X floatatom 126 248 3 0 0 0 - - - 0;
#X floatatom 154 248 3 0 0 0 - - - 0;
#X floatatom 183 248 3 0 0 0 - - - 0;
#X floatatom 211 248 3 0 0 0 - - - 0;
#X floatatom 13 345 3 0 0 0 - - - 0;
#X floatatom 55 345 3 0 0 0 - - - 0;
#X floatatom 99 345 3 0 0 0 - - - 0;
#X floatatom 144 345 3 0 0 0 - - - 0;
#X floatatom 189 346 3 0 0 0 - - - 0;
#X floatatom 231 346 3 0 0 0 - - - 0;
#X floatatom 275 346 3 0 0 0 - - - 0;
#X floatatom 320 346 3 0 0 0 - - - 0;
#X floatatom 363 347 3 0 0 0 - - - 0;
#X floatatom 405 347 3 0 0 0 - - - 0;
#X floatatom 449 347 3 0 0 0 - - - 0;
#X floatatom 494 347 3 0 0 0 - - - 0;
#X floatatom 536 347 3 0 0 0 - - - 0;
#X floatatom 578 347 3 0 0 0 - - - 0;
#X floatatom 622 347 3 0 0 0 - - - 0;
#X floatatom 667 347 3 0 0 0 - - - 0;
#N canvas 250 158 1596 297 LaunchControlKnobs 0;
#X obj 12 14 cnv 15 1985 25 empty empty LaunchControlMidiSetup 20 12 0 14 #e0e0e0 #404040 0;
#X floatatom 781 96 0 0 0 3 Ch - - 0;
#X floatatom 742 96 0 0 0 3 Val - - 0;
#X floatatom 848 96 0 0 0 3 Ch - - 0;
#X floatatom 809 96 0 0 0 3 Val - - 0;
#X floatatom 915 96 0 0 0 3 Ch - - 0;
#X floatatom 876 96 0 0 0 3 Val - - 0;
#X floatatom 982 96 0 0 0 3 Ch - - 0;
#X floatatom 943 96 0 0 0 3 Val - - 0;
#X floatatom 1048 96 0 0 0 3 Ch - - 0;
#X floatatom 1009 96 0 0 0 3 Val - - 0;
#X floatatom 1115 96 0 0 0 3 Ch - - 0;
#X floatatom 1076 96 0 0 0 3 Val - - 0;
#X floatatom 1182 96 0 0 0 3 Ch - - 0;
#X floatatom 1143 96 0 0 0 3 Val - - 0;
#X floatatom 1249 96 0 0 0 3 Ch - - 0;
#X floatatom 1210 96 0 0 0 3 Val - - 0;
#X text 156 50 KNOB2;
#X text 222 50 KNOB3;
#X text 290 50 KNOB4;
#X text 354 49 KNOB5;
#X text 422 49 KNOB6;
#X text 488 49 KNOB7;
#X text 556 49 KNOB8;
#X text 88 50 KNOB1;
#X text 10 50 KNOBS ROW 1;
#X text 10 73 MIDI ON;
#X text 10 97 Values;
#X text 662 71 MIDI ON;
#X text 662 95 Values;
#X text 740 48 KNOB9;
#X text 808 48 KNOB10;
#X text 874 48 KNOB11;
#X text 942 48 KNOB12;
#X text 1006 47 KNOB13;
#X text 1074 47 KNOB14;
#X text 1140 47 KNOB15;
#X text 1208 47 KNOB16;
#X text 662 48 KNOBS ROW 2;
#X floatatom 129 96 0 0 0 3 Ch - - 0;
#X floatatom 90 96 0 0 0 3 Val - - 0;
#X floatatom 196 96 0 0 0 3 Ch - - 0;
#X floatatom 157 96 0 0 0 3 Val - - 0;
#X floatatom 263 96 0 0 0 3 Ch - - 0;
#X floatatom 224 96 0 0 0 3 Val - - 0;
#X floatatom 330 96 0 0 0 3 Ch - - 0;
#X floatatom 291 96 0 0 0 3 Val - - 0;
#X floatatom 396 96 0 0 0 3 Ch - - 0;
#X floatatom 357 96 0 0 0 3 Val - - 0;
#X floatatom 463 96 0 0 0 3 Ch - - 0;
#X floatatom 424 96 0 0 0 3 Val - - 0;
#X floatatom 530 96 0 0 0 3 Ch - - 0;
#X floatatom 491 96 0 0 0 3 Val - - 0;
#X floatatom 597 96 0 0 0 3 Ch - - 0;
#X floatatom 558 96 0 0 0 3 Val - - 0;
#X text 212 19 - Midi inputs for the 3 rows of knobs;
#X floatatom 1429 96 0 0 0 3 Ch - - 0;
#X floatatom 1390 96 0 0 0 3 Val - - 0;
#X floatatom 1496 96 0 0 0 3 Ch - - 0;
#X floatatom 1457 96 0 0 0 3 Val - - 0;
#X floatatom 1563 96 0 0 0 3 Ch - - 0;
#X floatatom 1524 96 0 0 0 3 Val - - 0;
#X floatatom 1630 96 0 0 0 3 Ch - - 0;
#X floatatom 1591 96 0 0 0 3 Val - - 0;
#X floatatom 1696 96 0 0 0 3 Ch - - 0;
#X floatatom 1657 96 0 0 0 3 Val - - 0;
#X floatatom 1763 96 0 0 0 3 Ch - - 0;
#X floatatom 1724 96 0 0 0 3 Val - - 0;
#X floatatom 1830 96 0 0 0 3 Ch - - 0;
#X floatatom 1791 96 0 0 0 3 Val - - 0;
#X floatatom 1897 96 0 0 0 3 Ch - - 0;
#X floatatom 1858 96 0 0 0 3 Val - - 0;
#X text 1310 71 MIDI ON;
#X text 1310 95 Values;
#X text 1310 48 KNOBS ROW 3;
#X obj 90 73 ctlin 13;
#X obj 157 73 ctlin 14;
#X obj 224 73 ctlin 15;
#X obj 291 73 ctlin 16;
#X obj 357 72 ctlin 17;
#X obj 424 73 ctlin 18;
#X obj 491 72 ctlin 19;
#X obj 559 71 ctlin 20;
#X obj 742 72 ctlin 29;
#X obj 809 72 ctlin 30;
#X obj 876 72 ctlin 31;
#X obj 943 72 ctlin 32;
#X obj 1010 71 ctlin 33;
#X obj 1076 72 ctlin 34;
#X obj 1143 72 ctlin 35;
#X obj 1211 72 ctlin 36;
#X obj 1390 72 ctlin 49;
#X obj 1457 72 ctlin 50;
#X obj 1524 72 ctlin 51;
#X obj 1591 72 ctlin 52;
#X obj 1657 71 ctlin 53;
#X obj 1724 72 ctlin 54;
#X obj 1791 72 ctlin 55;
#X obj 1858 72 ctlin 56;
#X text 1388 48 KNOB17;
#X text 1456 48 KNOB18;
#X text 1522 48 KNOB19;
#X text 1590 48 KNOB20;
#X text 1653 46 KNOB21;
#X text 1722 47 KNOB22;
#X text 1789 47 KNOB23;
#X text 1857 45 KNOB24;
#X obj 90 134 outlet;
#X obj 159 134 outlet;
#X obj 226 134 outlet;
#X obj 295 134 outlet;
#X obj 358 134 outlet;
#X obj 427 134 outlet;
#X obj 491 133 outlet;
#X obj 560 133 outlet;
#X obj 741 138 outlet;
#X obj 810 138 outlet;
#X obj 877 138 outlet;
#X obj 946 138 outlet;
#X obj 1009 138 outlet;
#X obj 1078 138 outlet;
#X obj 1142 137 outlet;
#X obj 1211 137 outlet;
#X obj 1390 137 outlet;
#X obj 1459 137 outlet;
#X obj 1526 137 outlet;
#X obj 1595 137 outlet;
#X obj 1658 137 outlet;
#X obj 1727 137 outlet;
#X obj 1791 136 outlet;
#X obj 1860 136 outlet;
#X connect 75 0 40 0;
#X connect 75 0 107 0;
#X connect 75 1 39 0;
#X connect 76 0 42 0;
#X connect 76 0 108 0;
#X connect 76 1 41 0;
#X connect 77 0 44 0;
#X connect 77 0 109 0;
#X connect 77 1 43 0;
#X connect 78 0 46 0;
#X connect 78 0 110 0;
#X connect 78 1 45 0;
#X connect 79 0 48 0;
#X connect 79 0 111 0;
#X connect 79 1 47 0;
#X connect 80 0 50 0;
#X connect 80 0 112 0;
#X connect 80 1 49 0;
#X connect 81 0 52 0;
#X connect 81 0 113 0;
#X connect 81 1 51 0;
#X connect 82 0 54 0;
#X connect 82 0 114 0;
#X connect 82 1 53 0;
#X connect 83 0 2 0;
#X connect 83 0 115 0;
#X connect 83 1 1 0;
#X connect 84 0 4 0;
#X connect 84 0 116 0;
#X connect 84 1 3 0;
#X connect 85 0 6 0;
#X connect 85 0 117 0;
#X connect 85 1 5 0;
#X connect 86 0 8 0;
#X connect 86 0 118 0;
#X connect 86 1 7 0;
#X connect 87 0 10 0;
#X connect 87 0 119 0;
#X connect 87 1 9 0;
#X connect 88 0 12 0;
#X connect 88 0 120 0;
#X connect 88 1 11 0;
#X connect 89 0 14 0;
#X connect 89 0 121 0;
#X connect 89 1 13 0;
#X connect 90 0 16 0;
#X connect 90 0 122 0;
#X connect 90 1 15 0;
#X connect 91 0 57 0;
#X connect 91 0 123 0;
#X connect 91 1 56 0;
#X connect 92 0 59 0;
#X connect 92 0 124 0;
#X connect 92 1 58 0;
#X connect 93 0 61 0;
#X connect 93 0 125 0;
#X connect 93 1 60 0;
#X connect 94 0 63 0;
#X connect 94 0 126 0;
#X connect 94 1 62 0;
#X connect 95 0 65 0;
#X connect 95 0 127 0;
#X connect 95 1 64 0;
#X connect 96 0 67 0;
#X connect 96 0 128 0;
#X connect 96 1 66 0;
#X connect 97 0 69 0;
#X connect 97 0 129 0;
#X connect 97 1 68 0;
#X connect 98 0 71 0;
#X connect 98 0 130 0;
#X connect 98 1 70 0;
#X coords 0 -1 1 1 663 13 1 100 100;
#X restore 12 48 pd LaunchControlKnobs;
#N canvas 843 370 700 300 LaunchControlSliders 0;
#X text 24 16 Midi inputs for the 8 sliders;
#X text 10 73 MIDI ON;
#X text 10 97 Values;
#X floatatom 129 96 0 0 0 3 Ch - - 0;
#X floatatom 90 96 0 0 0 3 Val - - 0;
#X floatatom 196 96 0 0 0 3 Ch - - 0;
#X floatatom 157 96 0 0 0 3 Val - - 0;
#X floatatom 263 96 0 0 0 3 Ch - - 0;
#X floatatom 224 96 0 0 0 3 Val - - 0;
#X floatatom 330 96 0 0 0 3 Ch - - 0;
#X floatatom 291 96 0 0 0 3 Val - - 0;
#X floatatom 396 96 0 0 0 3 Ch - - 0;
#X floatatom 357 96 0 0 0 3 Val - - 0;
#X floatatom 463 96 0 0 0 3 Ch - - 0;
#X floatatom 424 96 0 0 0 3 Val - - 0;
#X floatatom 530 96 0 0 0 3 Ch - - 0;
#X floatatom 491 96 0 0 0 3 Val - - 0;
#X floatatom 597 96 0 0 0 3 Ch - - 0;
#X floatatom 558 96 0 0 0 3 Val - - 0;
#X obj 90 134 outlet;
#X obj 159 134 outlet;
#X obj 226 134 outlet;
#X obj 295 134 outlet;
#X obj 358 134 outlet;
#X obj 427 134 outlet;
#X obj 491 133 outlet;
#X obj 560 133 outlet;
#X text 10 51 SlIDERS;
#X text 88 50 SLIDER1;
#X text 156 50 SLIDER2;
#X text 222 50 SLIDER3;
#X text 290 50 SLIDER5;
#X text 354 48 SLIDER6;
#X text 423 49 SLIDER7;
#X text 488 49 SLIDER8;
#X text 556 49 SLIDER9;
#X obj 90 73 ctlin 77;
#X obj 157 73 ctlin 78;
#X obj 224 73 ctlin 79;
#X obj 291 73 ctlin 80;
#X obj 357 72 ctlin 81;
#X obj 424 73 ctlin 82;
#X obj 491 72 ctlin 83;
#X obj 559 71 ctlin 84;
#X connect 36 0 4 0;
#X connect 36 0 19 0;
#X connect 36 1 3 0;
#X connect 37 0 6 0;
#X connect 37 0 20 0;
#X connect 37 1 5 0;
#X connect 38 0 8 0;
#X connect 38 0 21 0;
#X connect 38 1 7 0;
#X connect 39 0 10 0;
#X connect 39 0 22 0;
#X connect 39 1 9 0;
#X connect 40 0 12 0;
#X connect 40 0 23 0;
#X connect 40 1 11 0;
#X connect 41 0 14 0;
#X connect 41 0 24 0;
#X connect 41 1 13 0;
#X connect 42 0 16 0;
#X connect 42 0 25 0;
#X connect 42 1 15 0;
#X connect 43 0 18 0;
#X connect 43 0 26 0;
#X connect 43 1 17 0;
#X restore 13 202 pd LaunchControlSliders;
#X f 33;
#N canvas 238 181 1022 340 LaunchControlBottomButtons 0;
#X obj 258 7 notein;
#X obj 62 111 == 41;
#X obj 54 163 outlet;
#X obj 112 163 outlet;
#X obj 168 163 outlet;
#X obj 224 161 outlet;
#X obj 282 160 outlet;
#X obj 340 159 outlet;
#X obj 399 159 outlet;
#X obj 454 158 outlet;
#X obj 120 111 == 42;
#X obj 176 111 == 43;
#X obj 232 109 == 44;
#X obj 290 108 == 57;
#X obj 348 107 == 58;
#X obj 407 107 == 59;
#X obj 462 106 == 60;
#X obj 733 3 notein;
#X obj 529 159 outlet;
#X obj 587 159 outlet;
#X obj 643 159 outlet;
#X obj 699 157 outlet;
#X obj 757 156 outlet;
#X obj 815 155 outlet;
#X obj 874 155 outlet;
#X obj 929 154 outlet;
#X obj 537 107 == 73;
#X obj 595 107 == 74;
#X obj 652 107 == 75;
#X obj 707 105 == 76;
#X obj 765 104 == 89;
#X obj 823 103 == 90;
#X obj 882 103 == 91;
#X obj 937 102 == 92;
#X text 59 85 BTN1;
#X text 124 84 BTN2;
#X text 180 83 BTN3;
#X text 233 83 BTN4;
#X text 290 83 BTN5;
#X text 355 82 BTN6;
#X text 411 81 BTN7;
#X text 464 81 BTN8;
#X text 534 79 BTN1;
#X text 599 78 BTN2;
#X text 655 77 BTN3;
#X text 708 77 BTN4;
#X text 765 77 BTN5;
#X text 830 76 BTN6;
#X text 886 75 BTN7;
#X text 939 75 BTN8;
#X text 58 57 BTN ROW 1;
#X text 533 56 BTN ROW 2;
#X connect 0 0 1 0;
#X connect 0 0 10 0;
#X connect 0 0 11 0;
#X connect 0 0 12 0;
#X connect 0 0 13 0;
#X connect 0 0 14 0;
#X connect 0 0 15 0;
#X connect 0 0 16 0;
#X connect 1 0 2 0;
#X connect 10 0 3 0;
#X connect 11 0 4 0;
#X connect 12 0 5 0;
#X connect 13 0 6 0;
#X connect 14 0 7 0;
#X connect 15 0 8 0;
#X connect 16 0 9 0;
#X connect 17 0 26 0;
#X connect 17 0 27 0;
#X connect 17 0 28 0;
#X connect 17 0 29 0;
#X connect 17 0 30 0;
#X connect 17 0 31 0;
#X connect 17 0 32 0;
#X connect 17 0 33 0;
#X connect 26 0 18 0;
#X connect 27 0 19 0;
#X connect 28 0 20 0;
#X connect 29 0 21 0;
#X connect 30 0 22 0;
#X connect 31 0 23 0;
#X connect 32 0 24 0;
#X connect 33 0 25 0;
#X restore 13 312 pd LaunchControlBottomButtons;
#X f 110;
#X text 822 47 Buttons-on-the-top-right:;
#N canvas 190 174 274 353 LaunchControleRightUpperButtons 0;
#X floatatom 78 69 0 0 0 3 Ch - - 0;
#X floatatom 145 69 0 0 0 3 Ch - - 0;
#X floatatom 106 69 0 0 0 3 Val - - 0;
#X floatatom 78 173 0 0 0 3 Ch - - 0;
#X floatatom 39 173 0 0 0 3 Val - - 0;
#X floatatom 106 173 0 0 0 3 Val - - 0;
#X obj 39 209 ctlout 27;
#X obj 106 209 ctlout 28;
#X floatatom 39 69 0 0 0 3 Val - - 0;
#X text 38 25 UP;
#X text 104 25 DOWN;
#X text 38 127 LEFT;
#X text 104 127 RIGHT;
#X obj 44 296 outlet;
#X obj 94 296 outlet;
#X obj 144 296 outlet;
#X obj 194 296 outlet;
#X obj 39 45 ctlin 104;
#X obj 106 45 ctlin 105;
#X obj 39 105 ctlout 104;
#X obj 106 105 ctlout 105;
#X obj 39 148 ctlin 106;
#X obj 106 148 ctlin 107;
#X connect 17 0 8 0;
#X connect 17 0 13 0;
#X connect 17 0 19 0;
#X connect 17 1 0 0;
#X connect 18 0 2 0;
#X connect 18 0 14 0;
#X connect 18 0 20 0;
#X connect 18 1 1 0;
#X connect 21 0 4 0;
#X connect 21 0 6 0;
#X connect 21 0 15 0;
#X connect 21 1 3 0;
#X connect 22 0 5 0;
#X connect 22 0 7 0;
#X connect 22 0 16 0;
#X restore 824 87 pd LaunchControleRightUpperButtons;
#N canvas 504 468 450 178 LaunchControlRightLowerButtons 0;
#X obj 189 20 notein;
#X obj 122 69 == 105;
#X obj 121 109 outlet;
#X obj 177 108 outlet;
#X obj 233 108 outlet;
#X obj 287 108 outlet;
#X obj 178 68 == 106;
#X obj 234 68 == 107;
#X obj 288 68 == 108;
#X connect 0 0 1 0;
#X connect 0 0 6 0;
#X connect 0 0 7 0;
#X connect 0 0 8 0;
#X connect 1 0 2 0;
#X connect 6 0 3 0;
#X connect 7 0 4 0;
#X connect 8 0 5 0;
#X restore 823 240 pd LaunchControlRightLowerButtons;
#X text 821 65 These buttons send out CC messages;
#X floatatom 823 276 3 0 0 0 - - - 0;
#X floatatom 887 276 3 0 0 0 - - - 0;
#X floatatom 954 275 3 0 0 0 - - - 0;
#X floatatom 1015 274 3 0 0 0 - - - 0;
#X text 822 205 Buttons-on-the-lower-right;
#X text 822 221 These buttons send out note messages;
#X obj 11 130 s kb1;
#X obj 48 130 s kb2;
#X obj 87 130 s kb3;
#X obj 125 130 s kb4;
#X obj 162 130 s kb5;
#X obj 199 130 s kb6;
#X obj 238 130 s kb7;
#X obj 276 130 s kb8;
#X obj 238 153 s kb9;
#X obj 276 153 s kb10;
#X obj 319 153 s kb11;
#X obj 362 153 s kb12;
#X obj 405 153 s kb13;
#X obj 449 153 s kb14;
#X obj 491 153 s kb15;
#X obj 534 153 s kb16;
#X obj 466 178 s kb17;
#X obj 509 178 s kb18;
#X obj 552 178 s kb19;
#X obj 595 178 s kb20;
#X obj 638 178 s kb21;
#X obj 682 178 s kb22;
#X obj 724 178 s kb23;
#X obj 767 178 s kb24;
#X obj 12 277 s sl1;
#X obj 52 277 s sl2;
#X obj 92 277 s sl3;
#X obj 132 277 s sl4;
#X obj 171 277 s sl5;
#X obj 211 277 s sl6;
#X obj 251 277 s sl7;
#X obj 291 277 s sl8;
#X obj 14 384 s b1;
#X obj 50 384 s b2;
#X obj 85 384 s b3;
#X obj 120 384 s b4;
#X obj 153 384 s b5;
#X obj 189 384 s b6;
#X obj 225 384 s b7;
#X obj 259 384 s b8;
#X obj 361 386 s b9;
#X obj 397 386 s b10;
#X obj 440 386 s b11;
#X obj 494 385 s b12;
#X obj 534 385 s b13;
#X obj 575 385 s b14;
#X obj 618 385 s b15;
#X obj 666 388 s b16;
#X obj 824 144 s bup;
#X obj 865 144 s bdwn;
#X obj 951 145 s br;
#X obj 915 144 s bl;
#X obj 822 315 s bdev;
#X obj 883 315 s bmute;
#X obj 944 315 s bsolo;
#X obj 1008 314 s brec;
#X text 13 448 Patch for handling input from Novation Launch Control XL \; This has been built against the MK2 edition \; All of the CC Note values are based on the Factory default assignments \; Inspired by: \; https://forum.pdpatchrepo.info/topic/10837/novation-launch-controller-abstraction-with-led-feedback-for-the-buttons;
#X text 818 437 Made by Matthew Harris in 2023 \; v0.0.2 (23/04/2023) \; Improvements: \; - Better Note event handling;
#X text 212 19 Launch Control XL, f 86;
#X connect 1 0 114 0;
#X connect 2 0 115 0;
#X connect 3 0 117 0;
#X connect 4 0 116 0;
#X connect 5 0 66 0;
#X connect 6 0 67 0;
#X connect 7 0 68 0;
#X connect 8 0 69 0;
#X connect 9 0 70 0;
#X connect 10 0 71 0;
#X connect 11 0 72 0;
#X connect 12 0 73 0;
#X connect 13 0 74 0;
#X connect 14 0 75 0;
#X connect 15 0 76 0;
#X connect 16 0 77 0;
#X connect 17 0 78 0;
#X connect 18 0 79 0;
#X connect 19 0 80 0;
#X connect 20 0 81 0;
#X connect 21 0 82 0;
#X connect 22 0 83 0;
#X connect 23 0 84 0;
#X connect 24 0 85 0;
#X connect 25 0 86 0;
#X connect 26 0 87 0;
#X connect 27 0 88 0;
#X connect 28 0 89 0;
#X connect 29 0 90 0;
#X connect 30 0 91 0;
#X connect 31 0 92 0;
#X connect 32 0 93 0;
#X connect 33 0 94 0;
#X connect 34 0 95 0;
#X connect 35 0 96 0;
#X connect 36 0 97 0;
#X connect 37 0 98 0;
#X connect 38 0 99 0;
#X connect 39 0 100 0;
#X connect 40 0 101 0;
#X connect 41 0 102 0;
#X connect 42 0 103 0;
#X connect 43 0 104 0;
#X connect 44 0 105 0;
#X connect 45 0 106 0;
#X connect 46 0 107 0;
#X connect 47 0 108 0;
#X connect 48 0 109 0;
#X connect 49 0 110 0;
#X connect 50 0 111 0;
#X connect 51 0 112 0;
#X connect 52 0 113 0;
#X connect 53 0 5 0;
#X connect 53 1 6 0;
#X connect 53 2 7 0;
#X connect 53 3 8 0;
#X connect 53 4 9 0;
#X connect 53 5 10 0;
#X connect 53 6 11 0;
#X connect 53 7 12 0;
#X connect 53 8 13 0;
#X connect 53 9 14 0;
#X connect 53 10 15 0;
#X connect 53 11 16 0;
#X connect 53 12 17 0;
#X connect 53 13 18 0;
#X connect 53 14 19 0;
#X connect 53 15 20 0;
#X connect 53 16 21 0;
#X connect 53 17 22 0;
#X connect 53 18 23 0;
#X connect 53 19 24 0;
#X connect 53 20 25 0;
#X connect 53 21 26 0;
#X connect 53 22 27 0;
#X connect 53 23 28 0;
#X connect 54 0 29 0;
#X connect 54 1 30 0;
#X connect 54 2 31 0;
#X connect 54 3 32 0;
#X connect 54 4 33 0;
#X connect 54 5 34 0;
#X connect 54 6 35 0;
#X connect 54 7 36 0;
#X connect 55 0 37 0;
#X connect 55 1 38 0;
#X connect 55 2 39 0;
#X connect 55 3 40 0;
#X connect 55 4 41 0;
#X connect 55 5 42 0;
#X connect 55 6 43 0;
#X connect 55 7 44 0;
#X connect 55 8 45 0;
#X connect 55 9 46 0;
#X connect 55 10 47 0;
#X connect 55 11 48 0;
#X connect 55 12 49 0;
#X connect 55 13 50 0;
#X connect 55 14 51 0;
#X connect 55 15 52 0;
#X connect 57 0 1 0;
#X connect 57 1 2 0;
#X connect 57 2 3 0;
#X connect 57 3 4 0;
#X connect 58 0 60 0;
#X connect 58 1 61 0;
#X connect 58 2 62 0;
#X connect 58 3 63 0;
#X connect 60 0 118 0;
#X connect 61 0 119 0;
#X connect 62 0 120 0;
#X connect 63 0 121 0;
