#N canvas 805 51 561 531 12;
#X obj 61 33 bng 15 250 50 0 empty empty empty 17 7 0 10 -262144 -1
-1;
#X obj 61 80 s trig;
#X obj 66 180 sig~;
#X floatatom 63 150 5 0 0 0 - - -;
#X obj 66 228 s~ freq;
#X text 57 130 frequency;
#X obj 244 426 dac~;
#X obj 200 112 r~ freq;
#X obj 264 180 r trig;
#N canvas 182 120 552 601 clamped 1;
#X obj 130 27 loadbang;
#X msg 100 63 1 6.267 17.55 34.39;
#X obj 103 101 unpack f f f f;
#X obj 99 155 *~;
#X obj 130 156 *~;
#X obj 161 156 *~;
#X obj 195 155 *~;
#X obj 70 200 cos~;
#X obj 109 201 cos~;
#X obj 155 199 cos~;
#X obj 198 200 cos~;
#X obj 61 249 *~ 0.5;
#X obj 114 268 *~ 0.25;
#X obj 168 288 *~ 0.125;
#X obj 240 308 *~ 0.0625;
#X obj 152 468 *~;
#X obj 257 349 inlet env;
#X obj 153 508 outlet~;
#N canvas 0 25 450 300 quenv 0;
#X msg 8 28 0 \, 1 0 0 \, 0 \$1 0;
#X obj 8 50 vline~;
#X obj 8 75 *~;
#X obj 8 5 inlet;
#X obj 8 126 outlet~;
#X obj 8 101 *~;
#X msg -11 -29;
#X connect 0 0 1 0;
#X connect 1 0 2 0;
#X connect 1 0 2 1;
#X connect 2 0 5 0;
#X connect 2 0 5 1;
#X connect 3 0 0 0;
#X connect 5 0 4 0;
#X restore 254 420 pd quenv;
#X obj 25 30 inlet~ drive;
#X connect 0 0 1 0;
#X connect 1 0 2 0;
#X connect 2 0 3 1;
#X connect 2 1 4 1;
#X connect 2 2 5 1;
#X connect 2 3 6 1;
#X connect 3 0 7 0;
#X connect 4 0 8 0;
#X connect 5 0 9 0;
#X connect 6 0 10 0;
#X connect 7 0 11 0;
#X connect 8 0 12 0;
#X connect 9 0 13 0;
#X connect 10 0 14 0;
#X connect 11 0 15 0;
#X connect 12 0 15 0;
#X connect 13 0 15 0;
#X connect 14 0 15 0;
#X connect 15 0 17 0;
#X connect 16 0 18 0;
#X connect 18 0 15 1;
#X connect 19 0 3 0;
#X connect 19 0 4 0;
#X connect 19 0 5 0;
#X connect 19 0 6 0;
#X restore 254 344 pd clamped modes;
#X obj 350 234 r trig;
#X obj 193 228 *~ -1;
#X floatatom 348 282 5 0 0 0 - - -;
#X text 370 261 env len;
#X obj 193 260 phasor~ 0;
#X obj 201 144 /~ 1;
#X msg 267 207 0;
#X connect 0 0 1 0;
#X connect 2 0 4 0;
#X connect 3 0 2 0;
#X connect 7 0 15 0;
#X connect 8 0 16 0;
#X connect 9 0 6 0;
#X connect 9 0 6 1;
#X connect 10 0 12 0;
#X connect 11 0 14 0;
#X connect 12 0 9 1;
#X connect 14 0 9 0;
#X connect 15 0 11 0;
#X connect 16 0 14 1;
