#N canvas 0 156 491 658 12;
#X obj 303 438 osc~ 200;
#X obj 276 500 *~ 0.5;
#X obj 268 558 dac~;
#X obj 336 303 hsl 128 15 0 127 0 0 empty empty empty -2 -8 0 10 -262144
-1 -1 8800 1;
#X floatatom 333 329 5 0 0 0 - - -;
#X obj 335 357 mtof;
#X floatatom 335 388 5 0 0 0 - - -;
#X obj 87 456 osc~ 200;
#X obj 273 404 +~;
#X obj 282 162 hsl 128 15 0 127 0 0 empty empty empty -2 -8 0 10 -262144
-1 -1 5000 1;
#X floatatom 279 188 5 0 0 0 - - -;
#X obj 281 216 mtof;
#X floatatom 281 247 5 0 0 0 - - -;
#X obj 274 299 *~;
#X obj 100 279 hsl 128 15 0 127 0 0 empty empty empty -2 -8 0 10 -262144
-1 -1 1800 1;
#X floatatom 98 308 5 0 0 0 - - -;
#X obj 100 336 mtof;
#X floatatom 100 367 5 0 0 0 - - -;
#X obj 69 419 +~;
#X obj 367 486 s~ feedback;
#X obj 40 56 r~ feedback;
#X obj 62 105 hsl 128 15 0 127 0 0 empty empty empty -2 -8 0 10 -262144
-1 -1 6000 1;
#X floatatom 70 135 5 0 0 0 - - -;
#X obj 72 163 mtof;
#X floatatom 72 194 5 0 0 0 - - -;
#X obj 49 233 *~;
#X connect 0 0 1 0;
#X connect 0 0 19 0;
#X connect 1 0 2 0;
#X connect 1 0 2 1;
#X connect 3 0 4 0;
#X connect 4 0 5 0;
#X connect 5 0 6 0;
#X connect 6 0 8 1;
#X connect 7 0 13 0;
#X connect 8 0 0 0;
#X connect 9 0 10 0;
#X connect 10 0 11 0;
#X connect 11 0 12 0;
#X connect 12 0 13 1;
#X connect 13 0 8 0;
#X connect 14 0 15 0;
#X connect 15 0 16 0;
#X connect 16 0 17 0;
#X connect 17 0 18 1;
#X connect 18 0 7 0;
#X connect 20 0 25 0;
#X connect 21 0 22 0;
#X connect 22 0 23 0;
#X connect 23 0 24 0;
#X connect 24 0 25 1;
#X connect 25 0 18 0;
