#N canvas 417 100 746 881 12;
#X obj 61 33 bng 15 250 50 0 empty empty empty 17 7 0 10 -262144 -1
-1;
#X obj 61 80 s trig;
#X obj 66 180 sig~;
#X floatatom 62 152 5 0 0 0 - - -;
#X obj 60 345 s~ freq;
#X obj 58 296 +~;
#X floatatom 140 249 5 0 0 0 - - -;
#X obj 102 270 *~;
#X text 57 130 frequency;
#X text 135 228 vibrato;
#X obj 265 173 noise~;
#X obj 261 258 lop~ 4000;
#X obj 266 338 hip~ 90;
#N canvas 318 279 652 546 freemodes 1;
#X obj 220 28 loadbang;
#X msg 222 68 1 2.7565 5.40392 8.93295 13.3443 18.6379;
#X obj 225 102 unpack f f f f f f;
#X obj 51 33 inlet~;
#X obj 195 198 *~;
#X obj 230 197 *~;
#X obj 268 197 *~;
#X obj 306 198 *~;
#X obj 339 198 *~;
#X obj 374 199 *~;
#X obj 48 240 inlet~;
#X obj 130 307 vcf~ 1 1;
#X obj 213 306 vcf~ 1 1;
#X obj 293 307 vcf~ 1 1;
#X obj 368 309 vcf~ 1 1;
#X obj 453 309 vcf~ 1 1;
#X obj 535 308 vcf~ 1 1;
#X obj 282 413 outlet~;
#X obj 525 227 inlet res;
#X connect 0 0 1 0;
#X connect 1 0 2 0;
#X connect 2 0 4 1;
#X connect 2 1 5 1;
#X connect 2 2 6 1;
#X connect 2 3 7 1;
#X connect 2 4 8 1;
#X connect 2 5 9 1;
#X connect 3 0 4 0;
#X connect 3 0 5 0;
#X connect 3 0 6 0;
#X connect 3 0 7 0;
#X connect 3 0 8 0;
#X connect 3 0 8 1;
#X connect 3 0 9 1;
#X connect 4 0 11 1;
#X connect 5 0 12 1;
#X connect 6 0 13 1;
#X connect 7 0 14 1;
#X connect 8 0 15 1;
#X connect 9 0 16 1;
#X connect 10 0 11 0;
#X connect 10 0 12 0;
#X connect 10 0 13 0;
#X connect 10 0 14 0;
#X connect 10 0 15 0;
#X connect 10 0 16 0;
#X connect 11 0 17 0;
#X connect 12 0 17 0;
#X connect 13 0 17 0;
#X connect 14 0 17 0;
#X connect 15 0 17 0;
#X connect 16 0 17 0;
#X connect 18 0 16 2;
#X connect 18 0 15 2;
#X connect 18 0 14 2;
#X connect 18 0 13 2;
#X connect 18 0 12 2;
#X connect 18 0 11 2;
#X restore 263 290 pd freemodes;
#X obj 273 433 dac~;
#X obj 265 226 *~;
#X obj 398 165 r~ freq;
#X obj 385 251 loadbang;
#X msg 385 274 80;
#X obj 283 384 *~ 4;
#X obj 106 205 osc~ 5;
#X connect 0 0 1 0;
#X connect 2 0 5 0;
#X connect 3 0 2 0;
#X connect 5 0 4 0;
#X connect 6 0 7 1;
#X connect 7 0 5 1;
#X connect 10 0 11 0;
#X connect 11 0 13 0;
#X connect 12 0 19 0;
#X connect 13 0 12 0;
#X connect 16 0 13 1;
#X connect 17 0 18 0;
#X connect 18 0 13 2;
#X connect 19 0 14 0;
#X connect 19 0 14 1;
#X connect 20 0 7 0;
