#N canvas 130 189 405 626 12;
#N canvas 585 91 1095 917 subpatch 1;
#X obj 28 59 openpanel;
#X obj 28 121 soundfiler;
#X msg 28 90 read -resize \$1 sample1;
#X obj 116 413 phasor~;
#X obj 121 540 *~;
#X obj 115 595 tabread~ sample1;
#X floatatom 21 372 5 0 0 0 - - -;
#X obj 79 163 expr 44100 / $f1;
#X obj 55 347 t b f;
#X obj 116 382 *;
#X text 569 813 volume ctrl;
#X obj 278 228 t b f;
#X floatatom 209 163 5 0 0 0 - - -;
#X obj 201 228 -;
#X obj 116 444 *~;
#X obj 116 475 +~;
#X obj 20 195 expr 1 / $f1;
#X obj 56 256 *;
#X obj 28 28 r load;
#X obj 569 783 r amp;
#X obj 271 562 s pos;
#X obj 110 256 r speed;
#X obj 235 122 r right-limit;
#X obj 300 163 r left-limit;
#X obj 197 489 unsig 20;
#X obj 356 783 level_control~;
#X obj 532 841 * 100;
#X obj 369 413 phasor~;
#X obj 374 540 *~;
#X obj 364 589 tabread~ sample1;
#X obj 369 379 *;
#X obj 369 444 *~;
#X obj 369 475 +~;
#X obj 385 341 * 1.002;
#X text 9 407 Regular speed;
#X text 448 408 slightly phased;
#X obj 415 235 r phase;
#X obj 426 279 t b f;
#X obj 439 51 loadbang;
#X msg 445 99 1;
#X obj 454 146 s init_speed;
#X msg 512 95 1;
#X obj 634 146 s init_right;
#X obj 590 192 s init_phase;
#X obj 113 302 f;
#X msg 575 89 1;
#X msg 561 292 0;
#X obj 549 256 r reset_phase;
#X obj 475 380 s rel-phase;
#X text 829 26 line in recording method;
#X obj 792 176 adc~;
#X obj 795 220 tabwrite~ sample1;
#X obj 896 64 r record;
#X obj 895 103 tgl 15 0 empty empty empty 17 7 0 10 -262144 -1 -1 0
1;
#X obj 882 138 moses 1;
#X msg 865 170 stop;
#X obj 953 174 bng 15 250 50 0 empty empty empty 17 7 0 10 -262144
-1 -1;
#X connect 0 0 2 0;
#X connect 1 0 7 0;
#X connect 1 0 28 1;
#X connect 1 0 4 1;
#X connect 2 0 1 0;
#X connect 3 0 14 0;
#X connect 4 0 5 0;
#X connect 5 0 25 0;
#X connect 6 0 9 0;
#X connect 6 0 30 0;
#X connect 7 0 17 1;
#X connect 8 0 6 0;
#X connect 8 1 9 1;
#X connect 8 1 33 0;
#X connect 9 0 3 0;
#X connect 11 0 12 0;
#X connect 11 1 13 1;
#X connect 11 1 15 1;
#X connect 11 1 32 1;
#X connect 12 0 13 0;
#X connect 13 0 14 1;
#X connect 13 0 16 0;
#X connect 13 0 31 1;
#X connect 14 0 15 0;
#X connect 15 0 4 0;
#X connect 15 0 24 0;
#X connect 16 0 17 0;
#X connect 17 0 6 0;
#X connect 18 0 0 0;
#X connect 19 0 26 0;
#X connect 21 0 44 0;
#X connect 22 0 12 0;
#X connect 23 0 11 0;
#X connect 24 0 20 0;
#X connect 26 0 25 2;
#X connect 27 0 31 0;
#X connect 28 0 29 0;
#X connect 29 0 25 1;
#X connect 30 0 27 0;
#X connect 31 0 32 0;
#X connect 32 0 28 0;
#X connect 33 0 30 1;
#X connect 33 0 48 0;
#X connect 36 0 37 0;
#X connect 37 0 44 0;
#X connect 37 1 33 1;
#X connect 38 0 39 0;
#X connect 38 0 41 0;
#X connect 38 0 45 0;
#X connect 39 0 40 0;
#X connect 41 0 43 0;
#X connect 44 0 8 0;
#X connect 45 0 42 0;
#X connect 46 0 3 1;
#X connect 46 0 27 1;
#X connect 47 0 46 0;
#X connect 50 0 51 0;
#X connect 52 0 53 0;
#X connect 53 0 54 0;
#X connect 54 0 55 0;
#X connect 54 1 56 0;
#X connect 55 0 51 0;
#X connect 56 0 51 0;
#X restore 260 545 pd subpatch;
#X obj 40 31 cnv 15 300 500 empty empty empty 20 12 0 14 -228856 -66577
0;
#X obj 40 31 cnv 15 300 60 empty empty empty 20 12 0 14 -203904 -66577
0;
#X obj 40 91 cnv 15 300 100 empty empty empty 20 12 0 14 -232576 -66577
0;
#X obj 40 192 cnv 15 300 200 empty empty empty 20 12 0 14 -203904 -66577
0;
#X obj 40 392 cnv 15 300 100 empty empty empty 20 12 0 14 -232576 -66577
0;
#X obj 54 46 bng 30 250 50 0 load empty empty 17 7 0 10 -204786 -4032
-4032;
#X text 101 47 Load a file;
#X obj 57 114 hsl 260 15 0 1 0 0 left-limit empty empty -2 -8 0 10
-262144 -1 -1 0 1;
#X obj 56 147 hsl 260 15 0 1 0 0 right-limit init_right empty -2 -8
0 10 -262144 -1 -1 12000 1;
#X text 53 91 Left limit;
#X text 238 166 right limit;
#N canvas 0 22 450 278 (subpatch) 0;
#X array sample1 70168 float 2;
#X coords 0 1 70168 -1 200 140 1;
#X restore 81 212 graph;
#X obj 84 363 hsl 198 15 0 1 0 0 empty pos empty -2 -8 0 10 -262144
-1 -1 8791 1;
#X obj 61 412 hsl 260 15 -2 2 0 0 speed init_speed empty -2 -8 0 10
-262144 -1 -1 20125 1;
#X obj 61 512 hsl 260 15 0 1 0 0 amp empty empty -2 -8 0 10 -262144
-1 -1 24800 1;
#X text 56 390 playback speed;
#X text 57 492 volume;
#X floatatom 286 391 5 0 0 0 - speed -;
#X text 138 7 ITS GONNA RAIN;
#X obj 61 454 hsl 220 15 1 1.1 0 1 phase init_phase Relative_Phase
-2 -8 0 10 -262144 -1 -1 700 1;
#X obj 305 454 bng 15 250 50 0 reset_phase empty empty 17 7 0 10 -262144
-1 -1;
#X text 257 472 reset phase;
#X floatatom 246 433 5 0 0 2 - rel-phase -;
#X obj 230 44 bng 30 250 50 0 record empty record_input 17 7 0 10 -4032
-1 -1;
