#N canvas 805 51 746 881 12;
#X obj 61 33 bng 15 250 50 0 empty empty empty 17 7 0 10 -262144 -1
-1;
#X obj 61 80 s trig;
#X obj 262 33 r trig;
#X obj 66 180 sig~;
#X floatatom 63 150 5 0 0 0 - - -;
#X obj 60 345 s~ freq;
#X obj 58 296 +~;
#X floatatom 140 249 5 0 0 0 - - -;
#X obj 102 270 *~;
#X text 57 130 frequency;
#X text 135 228 vibrato;
#X obj 163 579 noise~;
#X obj 159 664 lop~ 4000;
#X obj 164 744 hip~ 90;
#N canvas 318 279 652 546 freemodes 0;
#X obj 220 28 loadbang;
#X msg 222 68 1 2.7565 5.40392 8.93295 13.3443 18.6379;
#X obj 225 102 unpack f f f f f f;
#X obj 51 33 inlet~;
#X obj 195 198 *~;
#X obj 230 197 *~;
#X obj 268 197 *~;
#X obj 306 198 *~;
#X obj 339 198 *~;
#X obj 374 199 *~;
#X obj 48 240 inlet~;
#X obj 130 307 vcf~ 1 1;
#X obj 213 306 vcf~ 1 1;
#X obj 293 307 vcf~ 1 1;
#X obj 368 309 vcf~ 1 1;
#X obj 453 309 vcf~ 1 1;
#X obj 535 308 vcf~ 1 1;
#X obj 282 413 outlet~;
#X obj 525 227 inlet res;
#X connect 0 0 1 0;
#X connect 1 0 2 0;
#X connect 2 0 4 1;
#X connect 2 1 5 1;
#X connect 2 2 6 1;
#X connect 2 3 7 1;
#X connect 2 4 8 1;
#X connect 2 5 9 1;
#X connect 3 0 4 0;
#X connect 3 0 5 0;
#X connect 3 0 6 0;
#X connect 3 0 7 0;
#X connect 3 0 8 0;
#X connect 3 0 8 1;
#X connect 3 0 9 1;
#X connect 4 0 11 1;
#X connect 5 0 12 1;
#X connect 6 0 13 1;
#X connect 7 0 14 1;
#X connect 8 0 15 1;
#X connect 9 0 16 1;
#X connect 10 0 11 0;
#X connect 10 0 12 0;
#X connect 10 0 13 0;
#X connect 10 0 14 0;
#X connect 10 0 15 0;
#X connect 10 0 16 0;
#X connect 11 0 17 0;
#X connect 12 0 17 0;
#X connect 13 0 17 0;
#X connect 14 0 17 0;
#X connect 15 0 17 0;
#X connect 16 0 17 0;
#X connect 18 0 16 2;
#X connect 18 0 15 2;
#X connect 18 0 14 2;
#X connect 18 0 13 2;
#X connect 18 0 12 2;
#X connect 18 0 11 2;
#X restore 161 696 pd freemodes;
#X obj 171 839 dac~;
#N canvas 0 25 450 397 env16p 0;
#X obj 36 28 inlet;
#X msg 33 66 0 \, 1 0 0 \, 0 \$1 0;
#X obj 34 99 vline~;
#X obj 35 126 *~;
#X obj 35 153 *~;
#X obj 33 177 *~;
#X obj 32 209 *~;
#X obj 37 242 *~;
#X obj 38 267 *~;
#X obj 33 312 outlet~;
#X connect 0 0 1 0;
#X connect 1 0 2 0;
#X connect 2 0 3 0;
#X connect 2 0 3 1;
#X connect 3 0 4 0;
#X connect 3 0 4 1;
#X connect 4 0 5 0;
#X connect 4 0 5 1;
#X connect 5 0 6 0;
#X connect 5 0 6 1;
#X connect 6 0 7 0;
#X connect 6 0 7 1;
#X connect 7 0 8 0;
#X connect 7 0 8 1;
#X connect 8 0 9 0;
#X restore 264 98 pd env16p;
#X obj 568 48 metro 100;
#X obj 566 89 snapshot~;
#X floatatom 571 143 5 0 0 0 - - -;
#X obj 567 2 r trig;
#X obj 368 128 r~ freq;
#X obj 361 276 phasor~ 20;
#X obj 432 196 r trig;
#X msg 435 228 0;
#N canvas 252 50 552 601 clamped 1;
#X obj 130 27 loadbang;
#X msg 100 63 1 6.267 17.55 34.39;
#X obj 103 101 unpack f f f f;
#X obj 99 155 *~;
#X obj 130 156 *~;
#X obj 161 156 *~;
#X obj 195 155 *~;
#X obj 70 200 cos~;
#X obj 109 201 cos~;
#X obj 155 199 cos~;
#X obj 198 200 cos~;
#X obj 61 249 *~ 0.5;
#X obj 114 268 *~ 0.25;
#X obj 168 288 *~ 0.125;
#X obj 240 308 *~ 0.0625;
#X obj 152 468 *~;
#X obj 257 349 inlet env;
#X obj 153 508 outlet~;
#N canvas 0 25 450 300 quenv 0;
#X msg 8 28 0 \, 1 0 0 \, 0 \$1 0;
#X obj 8 50 vline~;
#X obj 8 75 *~;
#X obj 8 5 inlet;
#X obj 8 126 outlet~;
#X obj 8 101 *~;
#X msg -11 -29;
#X connect 0 0 1 0;
#X connect 1 0 2 0;
#X connect 1 0 2 1;
#X connect 2 0 5 0;
#X connect 2 0 5 1;
#X connect 3 0 0 0;
#X connect 5 0 4 0;
#X restore 254 420 pd quenv;
#X obj 25 30 inlet~ drive;
#X connect 0 0 1 0;
#X connect 1 0 2 0;
#X connect 2 0 3 1;
#X connect 2 1 4 1;
#X connect 2 2 5 1;
#X connect 2 3 6 1;
#X connect 3 0 7 0;
#X connect 4 0 8 0;
#X connect 5 0 9 0;
#X connect 6 0 10 0;
#X connect 7 0 11 0;
#X connect 8 0 12 0;
#X connect 9 0 13 0;
#X connect 10 0 14 0;
#X connect 11 0 15 0;
#X connect 12 0 15 0;
#X connect 13 0 15 0;
#X connect 14 0 15 0;
#X connect 15 0 17 0;
#X connect 16 0 18 0;
#X connect 18 0 15 1;
#X connect 19 0 3 0;
#X connect 19 0 4 0;
#X connect 19 0 5 0;
#X connect 19 0 6 0;
#X restore 472 393 pd clamped modes;
#X obj 568 283 r trig;
#X obj 163 632 *~;
#X obj 344 325 *~;
#X obj 375 419 *~;
#X obj 351 511 r~ freq;
#X obj 339 545 *~ 0.1;
#X obj 329 578 *~;
#X obj 327 616 +~;
#X obj 283 657 loadbang;
#X msg 283 680 80;
#X obj 361 244 *~ -1;
#X obj 266 123 *~ 3;
#X obj 356 208 +~;
#X obj 368 161 /~ 4;
#X obj 181 790 *~ 4;
#X obj 106 205 osc~ 5;
#X obj 469 444 *~ 0.2;
#X floatatom 566 331 5 0 0 0 - - -;
#X text 588 310 env len;
#X msg 262 62 700;
#X obj 289 160 *~ 6;
#X connect 0 0 1 0;
#X connect 2 0 45 0;
#X connect 3 0 6 0;
#X connect 4 0 3 0;
#X connect 6 0 5 0;
#X connect 7 0 8 1;
#X connect 8 0 6 1;
#X connect 11 0 27 0;
#X connect 12 0 14 0;
#X connect 13 0 40 0;
#X connect 14 0 13 0;
#X connect 16 0 37 0;
#X connect 17 0 18 0;
#X connect 18 0 19 0;
#X connect 20 0 17 0;
#X connect 21 0 39 0;
#X connect 22 0 28 0;
#X connect 22 0 28 1;
#X connect 22 0 25 0;
#X connect 23 0 24 0;
#X connect 24 0 22 1;
#X connect 25 0 29 1;
#X connect 25 0 42 0;
#X connect 26 0 43 0;
#X connect 27 0 12 0;
#X connect 28 0 29 0;
#X connect 29 0 27 1;
#X connect 30 0 31 0;
#X connect 30 0 33 1;
#X connect 31 0 32 1;
#X connect 32 0 33 0;
#X connect 33 0 14 1;
#X connect 34 0 35 0;
#X connect 35 0 14 2;
#X connect 36 0 22 0;
#X connect 37 0 32 0;
#X connect 37 0 46 0;
#X connect 38 0 36 0;
#X connect 39 0 38 1;
#X connect 40 0 15 0;
#X connect 40 0 15 1;
#X connect 41 0 8 0;
#X connect 42 0 13 0;
#X connect 43 0 25 1;
#X connect 45 0 16 0;
#X connect 46 0 38 0;
